#define air_humidity_warning_width 16
#define air_humidity_warning_height 16
static unsigned char air_humidity_warning_bits[] = {
   0x60, 0x00, 0x90, 0x00, 0x18, 0x01, 0x24, 0x02, 0x42, 0x0a, 0x42, 0x0a,
   0x04, 0x19, 0x90, 0x3c, 0x38, 0x3e, 0x28, 0x7f, 0x6c, 0x7f, 0x6c, 0x7e,
   0xfe, 0x3e, 0xee, 0x1e, 0xfe, 0x0e, 0x00, 0x00 };
