#define air_humidity_width 16
#define air_humidity_height 16
static unsigned char air_humidity_bits[] = {
   0x60, 0x00, 0x90, 0x00, 0x18, 0x01, 0x24, 0x02, 0x42, 0x0a, 0x42, 0x0a,
   0x04, 0x19, 0xf8, 0x3c, 0x00, 0x3e, 0x00, 0x7f, 0xe0, 0x7f, 0xe0, 0x7f,
   0xc0, 0x3f, 0x80, 0x1f, 0x00, 0x0f, 0x00, 0x00 };
