#define clover11_width 26
#define clover11_height 32
static unsigned char clover11_bits[] = {
   0x00, 0x00, 0x00, 0x00, 0x00, 0x00, 0x00, 0x00, 0x00, 0x00, 0x00, 0x00,
   0x00, 0x00, 0x00, 0x00, 0x00, 0x30, 0x00, 0x00, 0x00, 0x30, 0x00, 0x00,
   0x00, 0x78, 0x00, 0x00, 0x00, 0x78, 0x00, 0x00, 0x00, 0x78, 0x00, 0x00,
   0x00, 0xfc, 0x00, 0x00, 0x00, 0xfc, 0x00, 0x00, 0x60, 0xfc, 0x18, 0x00,
   0xe0, 0x79, 0x1e, 0x00, 0xe0, 0x33, 0x1f, 0x00, 0xc0, 0x87, 0x0f, 0x00,
   0xc0, 0x87, 0x0f, 0x00, 0x80, 0xcf, 0x07, 0x00, 0x00, 0xcf, 0x03, 0x00,
   0x00, 0x78, 0x00, 0x00, 0x00, 0x00, 0x00, 0x00, 0x00, 0x00, 0x00, 0x00,
   0x58, 0x48, 0x6d, 0x00, 0x44, 0x54, 0xa5, 0x00, 0x44, 0x54, 0x6d, 0x00,
   0x44, 0x54, 0xa5, 0x00, 0x98, 0x89, 0xac, 0x00, 0x00, 0x00, 0x00, 0x00,
   0x00, 0x00, 0x00, 0x00, 0x00, 0x00, 0x00, 0x00, 0x00, 0x00, 0x00, 0x00,
   0x00, 0x00, 0x00, 0x00, 0x00, 0x00, 0x00, 0x00 };
