#define thermometer_width 16
#define thermometer_height 16
static unsigned char thermometer_bits[] = {
   0x00, 0x00, 0x80, 0x01, 0x40, 0x02, 0xc0, 0x02, 0x40, 0x02, 0xc0, 0x02,
   0x40, 0x02, 0xc0, 0x02, 0x40, 0x02, 0x20, 0x04, 0x10, 0x08, 0xf0, 0x0f,
   0xf0, 0x0f, 0xe0, 0x07, 0xc0, 0x03, 0x00, 0x00 };
